<svg width="31" height="36" viewBox="0 0 31 36" fill="none" xmlns="http://www.w3.org/2000/svg">
<path d="M30.9603 21.3648C30.3342 29.6971 23.4147 35.9744 15.4999 35.9905C7.56892 35.9905 0.649425 29.6971 0.0393532 21.3648C-0.586773 13.0486 6.33272 5.75983 15.4999 5.77589C24.667 5.77589 31.5865 13.0646 30.9603 21.3648Z" fill="#E74C3C"/>
<path d="M19.658 6.30569C19.5295 6.25752 19.4011 6.22541 19.2566 6.17725C18.0204 5.88827 16.7521 5.75984 15.4998 5.75984C13.1719 5.75984 3.2984 7.33317 6.31665 11.4431C6.94278 12.294 7.93816 12.7757 8.93354 13.1128C11.9197 14.1082 15.2911 13.9637 18.1007 12.4706C19.658 11.6518 21.7611 10.6404 23.5592 11.3789C25.8068 12.3101 26.1761 15.7939 26.1761 17.897C26.1761 24.945 20.1877 30.9333 13.1398 30.9333C6.09189 30.9333 0.40859 25.234 0.135663 18.3947C0.00722739 19.358 -0.0409368 20.3373 0.0393357 21.3327C0.665462 29.665 7.58496 35.9423 15.4998 35.9584C23.4308 35.9584 30.3503 29.665 30.9603 21.3327C31.4901 14.3329 26.6577 8.08773 19.658 6.27357V6.30569Z" fill="#C0392B"/>
<path d="M13.0114 9.14734C13.0114 9.14734 12.9793 9.00283 12.9472 8.77807C12.899 8.52119 12.8187 8.21618 12.7385 7.84693C12.6261 7.47767 12.4976 7.0442 12.305 6.59468C12.1123 6.14515 11.9036 5.69562 11.6468 5.26215C11.133 4.39521 10.4748 3.65669 9.94498 3.22322C9.67205 2.99846 9.44729 2.85395 9.28674 2.75762C9.1262 2.67735 9.02987 2.62921 9.02987 2.62921H8.98171C8.30742 2.2439 8.0666 1.39301 8.4198 0.718719C8.78905 0.044429 9.62389 -0.196383 10.2982 0.172871C10.3624 0.20498 10.4266 0.253131 10.4748 0.28524C10.4748 0.28524 10.6193 0.397634 10.8601 0.574234C11.0848 0.766888 11.4059 1.05585 11.727 1.40905C12.3853 2.1315 13.0596 3.20716 13.5251 4.34703C13.766 4.90894 13.9426 5.48691 14.071 6.03276C14.1994 6.57861 14.2958 7.09236 14.36 7.54189C14.4081 8.00747 14.4402 8.37673 14.4563 8.60149C14.4563 8.84231 14.4724 8.98678 14.4724 8.98678C14.4884 9.38815 14.1834 9.74134 13.766 9.75739C13.3967 9.77345 13.0756 9.51658 13.0114 9.16338V9.14734Z" fill="#522100"/>
<path d="M18.9516 4.45943C20.6694 3.46405 22.6762 3.78513 24.6027 3.81723C25.3894 3.81723 29.0498 3.62458 29.1943 2.38838C28.8893 5.16581 27.6531 8.89046 24.6349 9.61292C23.2542 9.95006 21.8093 9.80557 20.4125 9.66108C18.4378 9.46842 16.4631 9.25972 14.4884 9.06707C15.4677 7.38134 16.8163 5.92038 18.4057 4.79656C18.5984 4.66812 18.775 4.53969 18.9516 4.44336V4.45943Z" fill="#27AE60"/>
<path d="M5.46578 14.1563C5.46578 14.5898 5.11258 14.943 4.67911 14.943C4.24564 14.943 3.89244 14.5898 3.89244 14.1563C3.89244 13.7229 4.24564 13.3697 4.67911 13.3697C5.11258 13.3697 5.46578 13.7229 5.46578 14.1563Z" fill="#FF8073"/>
<path d="M6.8304 17.4154C6.8304 17.8649 6.46114 18.2342 6.01162 18.2342C5.56209 18.2342 5.20889 17.8649 5.20889 17.4154C5.20889 16.9659 5.57815 16.6127 6.01162 16.6127C6.44509 16.6127 6.8304 16.9819 6.8304 17.4154Z" fill="#FF8073"/>
<path d="M5.08047 17.6402C5.08047 17.9613 4.80755 18.2342 4.48646 18.2342C4.16537 18.2342 3.89244 17.9613 3.89244 17.6402C3.89244 17.3191 4.14931 17.0462 4.48646 17.0462C4.8236 17.0462 5.08047 17.3191 5.08047 17.6402Z" fill="#FF8073"/>
<path d="M8.74089 20.6905C8.74089 21.4451 8.13082 22.0552 7.37626 22.0552C6.6217 22.0552 6.01163 21.4451 6.01163 20.6905C6.01163 19.936 6.6217 19.3259 7.37626 19.3259C8.13082 19.3259 8.74089 19.936 8.74089 20.6905Z" fill="#FF8073"/>
<path d="M9.4152 18.6998C9.4152 18.9566 9.20649 19.1653 8.94962 19.1653C8.69275 19.1653 8.48404 18.9566 8.48404 18.6998C8.48404 18.4429 8.69275 18.2342 8.94962 18.2342C9.20649 18.2342 9.4152 18.4429 9.4152 18.6998Z" fill="#FF8073"/>
<path d="M4.98414 20.4658C4.98414 20.8993 4.63094 21.2524 4.19747 21.2524C3.764 21.2524 3.4108 20.8993 3.4108 20.4658C3.4108 20.0323 3.764 19.6791 4.19747 19.6791C4.63094 19.6791 4.98414 20.0323 4.98414 20.4658Z" fill="#FF8073"/>
<path d="M12.1766 20.9474C12.1766 21.413 11.8073 21.7822 11.3417 21.7822C10.8762 21.7822 10.5069 21.413 10.5069 20.9474C10.5069 20.4818 10.8762 20.1126 11.3417 20.1126C11.8073 20.1126 12.1766 20.4818 12.1766 20.9474Z" fill="#FF8073"/>
<path d="M13.8783 20.3694C14.2153 20.3694 14.4884 20.0963 14.4884 19.7594C14.4884 19.4224 14.2153 19.1493 13.8783 19.1493C13.5414 19.1493 13.2683 19.4224 13.2683 19.7594C13.2683 20.0963 13.5414 20.3694 13.8783 20.3694Z" fill="#FF8073"/>
<path d="M10.1697 23.2593C10.1697 23.5964 9.89682 23.8693 9.55967 23.8693C9.22253 23.8693 8.9496 23.5964 8.9496 23.2593C8.9496 22.9221 9.22253 22.6492 9.55967 22.6492C9.89682 22.6492 10.1697 22.9221 10.1697 23.2593Z" fill="#FF8073"/>
</svg>
