<svg width="212" height="432" viewBox="0 0 212 432" fill="none" xmlns="http://www.w3.org/2000/svg">
<path d="M206.201 340.315H5.16885V431.355H206.201V340.315Z" fill="#E67E22"/>
<path d="M206.201 340.315H5.16885V360.714H206.201V340.315Z" fill="#D35400"/>
<path d="M211.37 320.086H0V340.315H211.37V320.086Z" fill="#BDC3C7"/>
<path d="M204.967 11.9543H6.40259V300.517H204.967V11.9543Z" fill="#34495E"/>
<path d="M204.967 130.221H6.40259V155.257H204.967V130.221Z" fill="#1D2A36"/>
<path d="M204.967 222.282H6.40259V247.318H204.967V222.282Z" fill="#1D2A36"/>
<path d="M204.967 300.538H6.40259L0 320.533H211.37L204.967 300.538Z" fill="#E3E7E8"/>
<path d="M211.37 11.9543H0C0 5.36029 5.36028 0 11.9543 0H199.416C206.01 0 211.37 5.36029 211.37 11.9543Z" fill="#E67E22"/>
<path d="M204.967 30.9493H6.40259V53.1988C8.50842 57.7082 13.0604 60.8563 18.3782 60.8563C25.6741 60.8563 31.5875 54.943 31.5875 47.6471C31.5875 54.943 37.5008 60.8563 44.7967 60.8563C52.0927 60.8563 58.006 54.943 58.006 47.6471C58.006 54.943 63.9194 60.8563 71.2153 60.8563C78.5113 60.8563 84.4246 54.943 84.4246 47.6471C84.4246 54.943 90.338 60.8563 97.6339 60.8563C104.93 60.8563 110.843 54.943 110.843 47.6471C110.843 54.943 116.757 60.8563 124.053 60.8563C131.348 60.8563 137.262 54.943 137.262 47.6471C137.262 54.943 143.175 60.8563 150.471 60.8563C157.767 60.8563 163.68 54.943 163.68 47.6471C163.68 54.943 169.594 60.8563 176.89 60.8563C184.186 60.8563 190.099 54.943 190.099 47.6471C190.099 54.943 196.012 60.8563 203.308 60.8563C203.861 60.8563 204.414 60.8138 204.946 60.75V30.9493H204.967Z" fill="#1D2A36"/>
<path d="M13.2093 41.8613C5.91332 41.8613 0 35.948 0 28.652V11.9543H26.4186V28.652C26.4186 35.948 20.5052 41.8613 13.2093 41.8613Z" fill="#F1C40F"/>
<path d="M39.6279 41.8613C32.3319 41.8613 26.4186 35.948 26.4186 28.652V11.9543H52.8372V28.652C52.8372 35.948 46.9238 41.8613 39.6279 41.8613Z" fill="#C0392B"/>
<path d="M66.0465 41.8613C58.7505 41.8613 52.8372 35.948 52.8372 28.652V11.9543H79.2558V28.652C79.2558 35.948 73.3424 41.8613 66.0465 41.8613Z" fill="#F1C40F"/>
<path d="M92.4864 41.8613C85.1904 41.8613 79.277 35.948 79.277 28.652V11.9543H105.696V28.652C105.696 35.948 99.7823 41.8613 92.4864 41.8613Z" fill="#C0392B"/>
<path d="M118.905 41.8613C111.609 41.8613 105.696 35.948 105.696 28.652V11.9543H132.114V28.652C132.114 35.948 126.201 41.8613 118.905 41.8613Z" fill="#F1C40F"/>
<path d="M145.324 41.8613C138.028 41.8613 132.114 35.948 132.114 28.652V11.9543H158.533V28.652C158.533 35.948 152.619 41.8613 145.324 41.8613Z" fill="#C0392B"/>
<path d="M171.742 41.8613C164.446 41.8613 158.533 35.948 158.533 28.652V11.9543H184.951V28.652C184.951 35.948 179.038 41.8613 171.742 41.8613Z" fill="#F1C40F"/>
<path d="M198.161 41.8613C190.865 41.8613 184.951 35.948 184.951 28.652V11.9543H211.37V28.652C211.37 35.948 205.457 41.8613 198.161 41.8613Z" fill="#C0392B"/>
<path d="M211.37 218.368H0V226.217H211.37V218.368Z" fill="#F1C40F"/>
<path d="M211.37 218.368L204.967 208.243H6.40259L0 218.368H211.37Z" fill="#F39C12"/>
<path d="M211.37 126.009H0V133.858H211.37V126.009Z" fill="#F1C40F"/>
<path d="M211.37 126.009L204.967 115.863H6.40259L0 126.009H211.37Z" fill="#F39C12"/>
</svg>
