<svg width="277" height="229" viewBox="0 0 277 229" fill="none" xmlns="http://www.w3.org/2000/svg">
<path d="M239.931 278.202H74.4624C68.2961 278.202 62.6748 275.374 59.0296 270.435C55.3843 265.495 54.2941 259.294 56.0657 253.401L73.5426 195.553C76.0296 187.377 83.4223 181.892 91.9393 181.892H142.326C147.709 181.892 152.853 184.174 156.498 188.126C160.144 192.078 161.949 197.427 161.506 202.775L157.725 247.166C157.486 249.789 158.372 252.31 160.144 254.252C161.915 256.194 164.368 257.25 166.991 257.25H193.871C196.631 257.25 198.845 259.465 198.845 262.224C198.845 264.984 196.631 267.198 193.871 267.198H166.991C161.609 267.198 156.464 264.916 152.819 260.964C149.174 257.012 147.368 251.663 147.811 246.314L151.593 201.924C151.831 199.3 150.945 196.779 149.174 194.837C147.402 192.896 144.949 191.839 142.326 191.839H91.9393C87.8171 191.839 84.2399 194.497 83.0476 198.449L65.5707 256.296C64.719 259.158 65.23 262.156 67.0015 264.541C68.7731 266.926 71.4985 268.288 74.4624 268.288H239.931C242.691 268.288 244.905 270.503 244.905 273.262C244.905 276.022 242.691 278.236 239.931 278.236V278.202Z" fill="#BDC3C7"/>
<path d="M235.025 184.481H82.2641C71.2601 184.481 61.687 176.679 59.4385 165.914L32.7972 37.7836L267.833 89.3968L258.123 164.142C256.624 175.725 246.677 184.447 234.991 184.447L235.025 184.481ZM45.6749 50.7976L69.1819 163.904C70.4765 170.07 75.9615 174.567 82.2641 174.567H235.025C241.737 174.567 247.426 169.559 248.278 162.916L256.829 97.1983L45.6749 50.7976Z" fill="#BDC3C7"/>
<path d="M105.328 184.481C102.909 184.481 100.797 182.743 100.422 180.29L80.9354 55.2946C80.5266 52.5692 82.3662 50.0481 85.0917 49.6053C87.7831 49.1964 90.3382 51.0361 90.781 53.7616L110.268 178.757C110.677 181.483 108.837 184.004 106.112 184.447C105.839 184.481 105.601 184.515 105.328 184.515V184.481Z" fill="#BDC3C7"/>
<path d="M135.955 184.481C133.366 184.481 131.186 182.471 131.015 179.847L123.18 64.7996C123.009 62.0742 125.054 59.6894 127.813 59.5191C130.504 59.3487 132.923 61.3928 133.094 64.1523L140.929 179.2C141.134 181.926 139.056 184.31 136.296 184.481C136.194 184.481 136.057 184.481 135.955 184.481Z" fill="#BDC3C7"/>
<path d="M167.945 181.142C165.186 181.142 162.971 178.928 162.971 176.168V72.5331C162.971 69.7736 165.186 67.5592 167.945 67.5592C170.705 67.5592 172.919 69.7736 172.919 72.5331V176.168C172.919 178.928 170.705 181.142 167.945 181.142Z" fill="#BDC3C7"/>
<path d="M200.037 184.481C200.037 184.481 199.867 184.481 199.799 184.481C197.039 184.345 194.927 182.028 195.063 179.302L199.56 82.6172C199.697 79.9599 201.877 77.8818 204.534 77.8818C204.602 77.8818 204.705 77.8818 204.773 77.8818C207.532 78.018 209.645 80.3347 209.508 83.0601L205.011 179.745C204.875 182.403 202.695 184.481 200.037 184.481Z" fill="#BDC3C7"/>
<path d="M228.143 181.142C228.143 181.142 227.803 181.142 227.632 181.142C224.907 180.87 222.897 178.417 223.17 175.691L232.061 87.2505C232.334 84.525 234.753 82.5491 237.512 82.7876C240.238 83.0601 242.248 85.4789 241.975 88.2385L233.083 176.679C232.811 179.234 230.665 181.142 228.143 181.142Z" fill="#BDC3C7"/>
<path d="M259.009 123.874C258.805 123.874 258.6 123.874 258.362 123.84L48.5707 97.1643C45.8452 96.8236 43.9374 94.3366 44.2781 91.6112C44.6188 88.8858 47.1398 86.9779 49.8312 87.3186L259.622 113.994C262.348 114.335 264.256 116.822 263.915 119.547C263.608 122.068 261.462 123.908 258.975 123.908L259.009 123.874Z" fill="#BDC3C7"/>
<path d="M255.5 150.992C255.5 150.992 255.364 150.992 255.296 150.992L58.5526 143.02C55.7931 142.918 53.6809 140.601 53.7831 137.842C53.8853 135.116 56.236 133.004 58.9615 133.072L255.705 141.044C258.43 141.146 260.576 143.463 260.474 146.222C260.372 148.914 258.158 150.992 255.5 150.992Z" fill="#BDC3C7"/>
<path d="M261.598 106.635L222.454 96.9939L228.041 74.3387L267.186 83.9799C273.454 85.513 277.27 91.8497 275.737 98.0841C274.204 104.353 267.867 108.168 261.632 106.635H261.598Z" fill="#E74C3C"/>
<path d="M272.296 86.8076C269.298 93.519 261.053 96.9599 254.001 95.1884C244.769 92.8717 235.707 90.2826 227.087 86.1603C226.474 85.8537 225.895 85.513 225.35 85.1042L222.42 96.9599L261.564 106.601C267.833 108.134 274.135 104.319 275.668 98.0501C276.725 93.7916 275.26 89.5671 272.262 86.7736L272.296 86.8076Z" fill="#C0392B"/>
<path d="M24.4505 5.41898L57.9054 41.0542L37.2942 60.4048L3.83931 24.8037C-1.50938 19.1143 -1.23681 10.1544 4.45256 4.80575C10.1419 -0.542937 19.1018 -0.270392 24.4505 5.41898Z" fill="#C0392B"/>
<path d="M20.2942 14.8218C20.2942 18.5352 17.2622 21.5672 13.5487 21.5672C9.83533 21.5672 6.80328 18.5352 6.80328 14.8218C6.80328 11.1083 9.83533 8.07627 13.5487 8.07627C17.2622 8.07627 20.2942 11.1083 20.2942 14.8218Z" fill="#ECF0F1"/>
<path d="M43.4605 41.6674C43.4605 43.984 41.5868 45.8578 39.2702 45.8578C36.9535 45.8578 35.0797 43.984 35.0797 41.6674C35.0797 39.3508 36.9535 37.477 39.2702 37.477C41.5868 37.477 43.4605 39.3508 43.4605 41.6674Z" fill="#ECF0F1"/>
</svg>
