<svg width="37" height="35" viewBox="0 0 37 35" fill="none" xmlns="http://www.w3.org/2000/svg">
<path d="M28.9855 3.10966C28.7287 3.4948 28.2865 3.75156 27.7873 3.78009C27.017 3.80862 26.3751 3.10966 26.3751 2.36791V2.32512C26.3751 2.23953 26.3751 2.1682 26.4036 2.08262L21.1685 0L16.3471 3.59466C16.4898 4.3792 16.0476 5.29213 15.0063 5.29213C14.7352 5.29213 14.4927 5.22081 14.3073 5.10669L10.6413 7.84548C11.5257 8.57297 11.2262 10.3846 9.77119 10.3846C9.07223 10.3846 8.64429 9.97089 8.48738 9.45736L3.58039 13.1091C3.69451 13.8936 3.25231 14.7638 2.22526 14.7638C1.9685 14.7638 1.75453 14.7067 1.5691 14.6069L0 15.7765L36.2033 5.97683L28.9855 3.10966Z" fill="#FFDF5C"/>
<path d="M36.1035 8.98664L36.2033 5.97682L0 15.7765L0.0713228 17.4455C0.299555 17.5453 0.484993 17.7593 0.484993 18.0874V18.173C0.484993 18.4725 0.342348 18.6722 0.142645 18.7863C0.898664 19.4425 0.941458 20.7406 0.256762 21.4538L0.328084 22.8945C0.328084 22.8945 0.328084 22.8945 0.342348 22.8945C1.66895 22.8945 1.68321 24.8916 0.413671 24.9771L0.456464 25.9614C2.16821 26.3037 2.22526 28.8999 0.613374 29.3849L0.641902 29.9555C1.0841 29.713 1.78306 29.8984 1.78306 30.5688V30.6544C1.78306 31.2963 1.14116 31.496 0.69896 31.2963L0.841606 34.3775L35.4758 26.532L35.5471 24.6348C34.8767 24.4351 34.891 23.3652 35.6042 23.2083L35.7183 19.8705C35.7183 19.8705 35.7041 19.8705 35.6898 19.8705C34.7198 19.8705 34.7198 18.3727 35.6898 18.3727C35.7183 18.3727 35.7469 18.3727 35.7754 18.3869V17.8877C35.1763 17.745 34.7055 17.1317 34.7055 16.504V16.4184C34.7055 15.7052 35.2333 15.1632 35.8895 15.0348L35.9893 12.1819C35.7611 12.4386 35.433 12.6098 34.9908 12.6098C33.165 12.6098 33.165 9.78545 34.9908 9.78545C35.2333 9.78545 35.433 9.8425 35.6042 9.91382C35.5186 9.54295 35.6755 9.10075 36.1035 9.0009V8.98664Z" fill="#F1C40F"/>
<path d="M16.7037 9.07222C16.7037 9.72838 15.5483 10.2562 14.1076 10.2562C12.6669 10.2562 11.5115 9.72838 11.5115 9.07222C11.5115 8.41605 12.6669 7.88826 14.1076 7.88826C15.5483 7.88826 16.7037 8.41605 16.7037 9.07222Z" fill="#F1C40F"/>
<path d="M10.0422 11.2262C10.0422 11.4401 9.68559 11.6113 9.24339 11.6113C8.80119 11.6113 8.44458 11.4401 8.44458 11.2262C8.44458 11.0122 8.80119 10.841 9.24339 10.841C9.68559 10.841 10.0422 11.0122 10.0422 11.2262Z" fill="#F1C40F"/>
<path d="M12.8666 11.1548C12.8666 11.326 12.567 11.4687 12.1962 11.4687C11.8253 11.4687 11.5257 11.326 11.5257 11.1548C11.5257 10.9837 11.8253 10.841 12.1962 10.841C12.567 10.841 12.8666 10.9837 12.8666 11.1548Z" fill="#F1C40F"/>
<path d="M23.0657 5.5774C23.0657 6.14798 21.8818 6.6187 20.4268 6.6187C18.9718 6.6187 17.7878 6.14798 17.7878 5.5774C17.7878 5.00682 18.9718 4.53609 20.4268 4.53609C21.8818 4.53609 23.0657 5.00682 23.0657 5.5774Z" fill="#F1C40F"/>
<path d="M25.1055 3.87992C25.1055 4.09389 24.6491 4.26506 24.0927 4.26506C23.5364 4.26506 23.08 4.09389 23.08 3.87992C23.08 3.66596 23.5364 3.49478 24.0927 3.49478C24.6491 3.49478 25.1055 3.66596 25.1055 3.87992Z" fill="#F1C40F"/>
<path d="M20.7977 8.04519C20.7977 8.27342 20.3697 8.45886 19.8419 8.45886C19.3142 8.45886 18.8862 8.27342 18.8862 8.04519C18.8862 7.81696 19.3142 7.63152 19.8419 7.63152C20.3697 7.63152 20.7977 7.81696 20.7977 8.04519Z" fill="#F1C40F"/>
<path d="M31.8241 5.5774C31.8241 6.14798 30.6829 6.6187 29.2565 6.6187C27.83 6.6187 26.6889 6.14798 26.6889 5.5774C26.6889 5.00682 27.83 4.53609 29.2565 4.53609C30.6829 4.53609 31.8241 5.00682 31.8241 5.5774Z" fill="#F1C40F"/>
<path d="M22.2812 2.09686C22.2812 2.25377 21.9959 2.39641 21.6393 2.39641C21.2826 2.39641 20.9974 2.26804 20.9974 2.09686C20.9974 1.92569 21.2826 1.7973 21.6393 1.7973C21.9959 1.7973 22.2812 1.92569 22.2812 2.09686Z" fill="#F1C40F"/>
<path d="M25.9614 7.33193C25.9614 7.48884 25.6618 7.63149 25.2767 7.63149C24.8916 7.63149 24.592 7.50311 24.592 7.33193C24.592 7.16076 24.8916 7.03238 25.2767 7.03238C25.6618 7.03238 25.9614 7.16076 25.9614 7.33193Z" fill="#F1C40F"/>
<path d="M6.53315 12.9094C6.53315 13.1519 6.14801 13.3373 5.67728 13.3373C5.20655 13.3373 4.82141 13.1519 4.82141 12.9094C4.82141 12.6669 5.20655 12.4814 5.67728 12.4814C6.14801 12.4814 6.53315 12.6811 6.53315 12.9094Z" fill="#F1C40F"/>
<path d="M13.3373 21.1543C13.3373 19.5281 14.507 18.2015 15.9335 18.2015C17.3599 18.2015 18.5296 19.5281 18.5296 21.1543C18.5296 22.7804 17.3599 24.107 15.9335 24.107C14.507 24.107 13.3373 22.7804 13.3373 21.1543Z" fill="#F39C12"/>
<path d="M29.6702 10.3703C29.6702 9.64281 30.1837 9.05797 30.8256 9.05797C31.4675 9.05797 31.981 9.64281 31.981 10.3703C31.981 11.0978 31.4675 11.6826 30.8256 11.6826C30.1837 11.6826 29.6702 11.0978 29.6702 10.3703Z" fill="#F39C12"/>
<path d="M6.1052 25.9757C6.1052 24.6491 7.04666 23.5792 8.21635 23.5792C9.38604 23.5792 10.3275 24.6491 10.3275 25.9757C10.3275 27.3023 9.38604 28.3721 8.21635 28.3721C7.04666 28.3721 6.1052 27.3023 6.1052 25.9757Z" fill="#F39C12"/>
<path d="M25.3052 24.9201C25.3052 23.5222 26.3038 22.381 27.5448 22.381C28.7858 22.381 29.7843 23.5079 29.7843 24.9201C29.7843 26.3323 28.7858 27.4592 27.5448 27.4592C26.3038 27.4592 25.3052 26.3323 25.3052 24.9201Z" fill="#F39C12"/>
<path d="M15.5768 29.285C15.5768 28.7858 15.9335 28.3864 16.3757 28.3864C16.8179 28.3864 17.1745 28.7858 17.1745 29.285C17.1745 29.7843 16.8179 30.1837 16.3757 30.1837C15.9335 30.1837 15.5768 29.7843 15.5768 29.285Z" fill="#F39C12"/>
<path d="M18.8862 13.3373C18.8862 12.5527 19.4425 11.9251 20.1272 11.9251C20.8119 11.9251 21.3682 12.5527 21.3682 13.3373C21.3682 14.1218 20.8119 14.7495 20.1272 14.7495C19.4425 14.7495 18.8862 14.1218 18.8862 13.3373Z" fill="#F39C12"/>
<path d="M8.01665 19.0716C8.01665 17.9447 8.82972 17.0318 9.81398 17.0318C10.7982 17.0318 11.6113 17.9447 11.6113 19.0716C11.6113 20.1985 10.7982 21.1114 9.81398 21.1114C8.82972 21.1114 8.01665 20.1985 8.01665 19.0716Z" fill="#F39C12"/>
<path d="M1.69748 24.2782C1.69748 23.9216 1.95424 23.6363 2.26806 23.6363C2.58188 23.6363 2.83864 23.9216 2.83864 24.2782C2.83864 24.6348 2.58188 24.9201 2.26806 24.9201C1.95424 24.9201 1.69748 24.6348 1.69748 24.2782Z" fill="#F39C12"/>
<path d="M5.09244 28.7287C5.09244 28.1153 5.53464 27.6018 6.07669 27.6018C6.61874 27.6018 7.06094 28.1011 7.06094 28.7287C7.06094 29.3563 6.61874 29.8556 6.07669 29.8556C5.53464 29.8556 5.09244 29.3563 5.09244 28.7287Z" fill="#F39C12"/>
<path d="M28.2865 15.1489C28.2865 13.8936 29.1852 12.8808 30.2835 12.8808C31.3819 12.8808 32.2806 13.8936 32.2806 15.1489C32.2806 16.4042 31.3819 17.4169 30.2835 17.4169C29.1852 17.4169 28.2865 16.4042 28.2865 15.1489Z" fill="#F39C12"/>
<path d="M30.2835 23.08C30.2835 22.4238 30.7543 21.8817 31.3391 21.8817C31.924 21.8817 32.3947 22.4238 32.3947 23.08C32.3947 23.7361 31.924 24.2782 31.3391 24.2782C30.7543 24.2782 30.2835 23.7504 30.2835 23.08Z" fill="#F39C12"/>
<path d="M1.86864 18.2015C1.86864 17.5025 2.36789 16.9177 2.99553 16.9177C3.62317 16.9177 4.12243 17.4883 4.12243 18.2015C4.12243 18.9147 3.62317 19.4853 2.99553 19.4853C2.36789 19.4853 1.86864 18.9147 1.86864 18.2015Z" fill="#F39C12"/>
<path d="M23.3938 19.899C23.8507 19.899 24.2211 19.4775 24.2211 18.9575C24.2211 18.4376 23.8507 18.0161 23.3938 18.0161C22.9369 18.0161 22.5665 18.4376 22.5665 18.9575C22.5665 19.4775 22.9369 19.899 23.3938 19.899Z" fill="#F39C12"/>
<path d="M25.4336 14.5355C25.4336 13.8794 25.9044 13.3373 26.4892 13.3373C27.074 13.3373 27.5448 13.8651 27.5448 14.5355C27.5448 15.206 27.074 15.7337 26.4892 15.7337C25.9044 15.7337 25.4336 15.1917 25.4336 14.5355Z" fill="#F39C12"/>
<path d="M17.8306 22.4381C17.8306 21.7819 18.3014 21.2398 18.8862 21.2398C19.471 21.2398 19.9418 21.7676 19.9418 22.4381C19.9418 23.1085 19.471 23.6363 18.8862 23.6363C18.3014 23.6363 17.8306 23.0942 17.8306 22.4381Z" fill="#F39C12"/>
<path d="M13.052 28.8C13.052 28.1439 13.5227 27.6018 14.1076 27.6018C14.6924 27.6018 15.1632 28.1296 15.1632 28.8C15.1632 29.4705 14.6924 29.9982 14.1076 29.9982C13.5227 29.9982 13.052 29.4562 13.052 28.8Z" fill="#F39C12"/>
<path d="M11.1549 16.4755C11.1549 16.0903 11.4401 15.7765 11.7825 15.7765C12.1248 15.7765 12.4101 16.0903 12.4101 16.4755C12.4101 16.8606 12.1391 17.1744 11.7825 17.1744C11.4259 17.1744 11.1549 16.8606 11.1549 16.4755Z" fill="#F39C12"/>
</svg>
