<svg width="77" height="47" viewBox="0 0 77 47" fill="none" xmlns="http://www.w3.org/2000/svg">
<path d="M0 32.3061C5.25048 33.2073 26.8989 42.2389 31.5224 46.98C35.8913 38.9476 42.043 42.3564 55.5218 33.1877C69.0006 24.019 70.137 16.1432 76.1711 12.6952C69.941 12.6168 47.4698 4.42764 42.1409 0C40.0643 7.17042 28.0548 8.16958 21.3154 13.4984C14.5759 18.8273 6.64146 29.7788 0 32.2865V32.3061Z" fill="#ECF0F1"/>
<path d="M2.62523 30.9935C7.8757 31.8947 27.9764 40.3973 32.6 45.1384C37.1647 40.5149 42.043 42.3564 55.5218 33.2073C69.0006 24.0386 69.7451 17.3383 74.5842 13.8315C68.3541 13.7531 45.8045 7.52308 40.4757 3.09544C37.5762 6.1125 28.0744 8.18918 21.3349 13.518C14.5955 18.8469 6.62186 28.6817 2.62523 30.9935Z" fill="#C0392B"/>
<path d="M60.2433 11.265C53.739 12.4209 47.2935 13.8511 40.8871 15.4967C28.9952 18.5334 17.064 21.8051 6.38678 27.9372C4.93702 29.3086 3.64399 30.4057 2.60565 30.9935C3.95745 31.2286 6.28881 31.9534 9.07078 33.0114C20.5709 26.4091 33.3248 22.3537 46.0984 18.7685C53.6802 16.6526 61.3208 14.9874 69.0202 13.4396C69.2945 13.3809 69.5688 13.3221 69.8431 13.2633C67.257 12.7931 64.1224 12.0487 60.8311 11.1671C60.6352 11.2062 60.4196 11.2454 60.2237 11.2846L60.2433 11.265Z" fill="#F39C12"/>
<path d="M61.791 17.8869C60.0866 18.7489 58.5976 19.4934 56.7952 20.1203C53.2492 21.3545 52.5635 22.628 50.2126 25.3708C47.4894 28.5446 44.198 30.6996 41.1222 33.5012C37.537 36.7729 34.755 40.6716 32.1494 44.727C32.3061 44.8641 32.4628 45.0013 32.5804 45.1384C37.1451 40.5149 42.0234 42.3564 55.5022 33.2073C68.8439 24.1365 69.7059 17.4755 74.4078 13.949C70.2545 15.5751 65.8268 15.8494 61.7714 17.8869H61.791Z" fill="#9E2F23"/>
<path d="M48.4101 19.3366C48.4101 23.7055 42.807 27.2515 35.8913 27.2515C28.9756 27.2515 23.3724 23.7055 23.3724 19.3366C23.3724 14.9678 28.9756 11.4217 35.8913 11.4217C42.807 11.4217 48.4101 14.9678 48.4101 19.3366Z" fill="#F1C40F"/>
</svg>
