<svg width="37" height="91" viewBox="0 0 37 91" fill="none" xmlns="http://www.w3.org/2000/svg">
<path d="M27.8 15.725V9.125H9.175V15.725C9.175 23.95 0 29.95 0 42.55V84C0 87.7 8.27499 90.725 18.5 90.725C28.725 90.725 37 87.725 37 84V42.55C37 29.975 27.825 23.95 27.825 15.725H27.8Z" fill="#BDC3C7"/>
<path d="M18.475 87.1C9.67497 87.1 4.52498 84.8 3.57498 83.7V42.55C3.57498 36.55 6.04998 32.2 8.42498 28C10.55 24.25 12.75 20.35 12.75 15.725V12.725H24.15V15.725C24.15 20.35 26.35 24.225 28.475 28C30.85 32.2 33.325 36.55 33.325 42.55V83.7C32.4 84.8 27.25 87.1 18.425 87.1H18.475Z" fill="#D7DDE3"/>
<path d="M3.57498 44.15V83.675C4.49998 84.775 9.64997 87.075 18.475 87.075C27.3 87.075 32.425 84.775 33.375 83.675V44.15H3.59998H3.57498Z" fill="#ECF0F1"/>
<path d="M29.125 9.92499C29.125 12.05 24.35 13.8 18.475 13.8C12.6 13.8 7.82498 12.075 7.82498 9.92499C7.82498 7.77499 12.6 6.04999 18.475 6.04999C24.35 6.04999 29.125 7.77499 29.125 9.92499Z" fill="#C0392B"/>
<path d="M29.125 3.875H7.82498V9.925H29.125V3.875Z" fill="#C0392B"/>
<path d="M29.125 3.875C29.125 6 24.35 7.75 18.475 7.75C12.6 7.75 7.82498 6.025 7.82498 3.875C7.82498 1.725 12.6 0 18.475 0C24.35 0 29.125 1.725 29.125 3.875Z" fill="#E74C3C"/>
<path d="M25.95 3.59999C25.95 4.94999 22.6 6.04999 18.475 6.04999C14.35 6.04999 11 4.94999 11 3.59999C11 2.24999 14.35 1.14999 18.475 1.14999C22.6 1.14999 25.95 2.24999 25.95 3.59999Z" fill="#F1C40F"/>
<path d="M33.375 44.15C33.375 47.15 26.7 49.575 18.475 49.575C10.25 49.575 3.57498 47.15 3.57498 44.15C3.57498 41.15 10.25 38.75 18.475 38.75C26.7 38.75 33.375 41.175 33.375 44.15Z" fill="white"/>
<path d="M11.875 53.6C11.875 54.325 11.3 54.9 10.575 54.9C9.84998 54.9 9.27498 54.325 9.27498 53.6C9.27498 52.875 9.84998 52.3 10.575 52.3C11.3 52.3 11.875 52.875 11.875 53.6Z" fill="white"/>
<path d="M15.25 59.475C15.25 60.225 14.65 60.85 13.875 60.85C13.1 60.85 12.5 60.225 12.5 59.475C12.5 58.725 13.1 58.1 13.875 58.1C14.65 58.1 15.25 58.7 15.25 59.475Z" fill="white"/>
<path d="M11.65 64.625C11.65 65.4 11.025 66.025 10.25 66.025C9.47499 66.025 8.84999 65.4 8.84999 64.625C8.84999 63.85 9.47499 63.225 10.25 63.225C11.025 63.225 11.65 63.85 11.65 64.625Z" fill="white"/>
<path d="M15.9 67.75C15.9 68.525 15.275 69.15 14.5 69.15C13.725 69.15 13.1 68.525 13.1 67.75C13.1 66.975 13.725 66.35 14.5 66.35C15.275 66.35 15.9 66.975 15.9 67.75Z" fill="white"/>
<path d="M19.85 70.45C19.85 71.175 19.275 71.75 18.55 71.75C17.825 71.75 17.25 71.175 17.25 70.45C17.25 69.725 17.825 69.15 18.55 69.15C19.275 69.15 19.85 69.725 19.85 70.45Z" fill="white"/>
<path d="M14.6 76C14.6 76.825 13.95 77.475 13.125 77.475C12.3 77.475 11.65 76.825 11.65 76C11.65 75.175 12.3 74.525 13.125 74.525C13.95 74.525 14.6 75.175 14.6 76Z" fill="white"/>
</svg>
