<svg width="66" height="63" viewBox="0 0 66 63" fill="none" xmlns="http://www.w3.org/2000/svg">
<path d="M4.47294 49.3392C2.6563 48.8505 1.47278 46.4107 1.26049 44.3838C1.17104 43.429 1.49299 42.1519 2.40971 41.641C3.55154 41.0174 4.92401 40.8238 6.37722 40.652C7.38329 40.5331 8.41498 40.3994 9.42412 40.1081C12.4515 39.2342 13.8136 37.0681 15.2486 34.7917C16.8713 32.2195 17.9724 29.3338 19.0207 26.5637C20.4252 22.8722 21.7497 19.3972 24.1821 16.6316C31.1636 8.70425 42.7028 9.90391 53.0777 12.1324C54.3051 12.3977 55.371 12.6195 56.3802 12.891C60.4576 13.988 62.727 15.5293 62.2993 20.1764C61.75 26.2409 58.9727 32.7018 54.451 38.3254C52.5689 40.6547 50.4422 42.7666 48.098 44.5603C47.9335 44.6892 47.7635 44.8382 47.5733 44.9819C47.0176 45.4385 46.3229 46.0092 45.8827 45.9557C45.2166 45.7765 43.9456 44.547 43.1878 43.8237C42.739 43.3999 42.3252 43.0071 42.0053 42.7479C41.1854 42.0944 40.3306 41.4098 39.8491 40.5444C39.5152 39.935 39.3287 39.019 39.7649 38.4437L38.2376 36.799C34.5498 39.1619 30.4804 39.3226 26.1673 39.5042C25.3351 39.5401 24.503 39.5759 23.6708 39.6118C20.0672 39.8112 14.8575 40.5092 11.3974 44.0374C10.7672 44.6903 10.2068 45.4054 9.67205 46.1057C8.57694 47.5211 7.54935 48.8465 6.11171 49.2822C5.5202 49.4694 4.95738 49.4695 4.45275 49.3338L4.47294 49.3392Z" fill="#EAEFF0"/>
<path d="M17.3965 38.3134C17.4345 38.1721 17.4375 37.9998 17.4554 37.853C16.9632 38.1535 16.3492 38.1832 15.8244 38.042C14.2247 39.3216 12.281 40.2706 10.8249 41.7404C9.63734 42.9361 8.84501 44.433 7.48278 45.4735C4.63414 47.6942 1.46645 45.6298 2.56351 42.1153C2.65583 41.7721 2.84754 41.5423 3.054 41.3381C2.83432 41.4305 2.59446 41.5175 2.38954 41.6355C1.47281 42.1465 1.15631 43.4034 1.24032 44.3784C1.427 46.4201 2.63613 48.845 4.45277 49.3338C4.95739 49.4696 5.52565 49.4493 6.11173 49.2823C7.54936 48.8465 8.57696 47.5211 9.67207 46.1058C10.2068 45.4054 10.7672 44.6904 11.3974 44.0374C13.3704 42.014 15.9297 40.9492 18.4099 40.3394C17.7469 39.9878 17.2274 39.2636 17.3763 38.308L17.3965 38.3134Z" fill="#BDC3C7"/>
<path d="M63.449 20.2476C64.0758 13.2514 58.9683 12.202 53.3414 10.9912C43.3555 8.8457 30.9258 7.25493 23.349 15.8663C18.8311 20.993 17.9435 28.3952 14.306 34.1918C13.367 35.6708 12.5373 36.9844 11.314 37.9108C12.0425 39.7086 13.9727 41.2236 15.7553 42.4824C18.2191 41.3703 21.0463 40.9188 23.7921 40.77C29.2029 40.4508 34.2473 40.7689 38.9046 37.7793C38.1984 38.7149 38.3259 40.0913 38.9161 41.1159C39.4861 42.1351 40.4255 42.9073 41.3557 43.6338C42.3852 44.4736 44.4467 46.8681 45.7564 47.0689C46.8991 47.2465 47.9532 46.1447 48.8326 45.4506C51.2644 43.5722 53.4478 41.4106 55.3664 39.0263C59.5979 33.7575 62.8711 27.0621 63.4638 20.2732L63.449 20.2476Z" fill="#F1BC91"/>
<path d="M63.449 20.2476C63.5552 19.1289 63.4913 18.1593 63.3033 17.3295C63.2448 20.0411 62.3098 22.7118 61.2414 25.4764C59.9494 28.8302 58.3549 33.2283 55.1848 35.276C51.3635 37.7329 47.6135 34.7758 47.4133 30.9339C45.0021 31.3675 42.566 30.9286 40.559 29.4578C39.618 28.7718 36.4175 25.7028 37.3559 24.5483C34.7178 27.7565 32.5789 31.1206 28.9788 33.3989C24.358 36.3334 18.7667 38.5305 13.4935 39.9474C13.2133 40.0236 12.9493 40.0391 12.7219 39.9996C13.5829 40.9023 14.6583 41.7327 15.6948 42.4661C18.1586 41.354 20.9858 40.9025 23.7315 40.7537C29.1423 40.4345 34.1868 40.7527 38.8441 37.7631C38.1378 38.6986 38.2654 40.075 38.8555 41.0996C39.4255 42.1188 40.365 42.891 41.2951 43.6175C42.3247 44.4573 44.3862 46.8518 45.6958 47.0526C46.8386 47.2302 47.8926 46.1284 48.7721 45.4343C51.2039 43.556 53.3872 41.3943 55.3058 39.01C59.5373 33.7412 62.8106 27.0458 63.4032 20.2569L63.449 20.2476Z" fill="#E3976E"/>
<path d="M22.2686 34.3642C22.1437 34.8285 21.6826 35.0941 21.2184 34.9692C20.7541 34.8443 20.4885 34.3832 20.6134 33.9189C20.7383 33.4547 21.1994 33.1891 21.6637 33.314C22.1279 33.4389 22.3935 33.9 22.2686 34.3642Z" fill="#FFCEA6"/>
<path d="M25.4404 33.356C25.3861 33.5579 25.1758 33.6961 24.9537 33.6364C24.7317 33.5766 24.6137 33.3717 24.6734 33.1497C24.7331 32.9276 24.938 32.8096 25.1601 32.8693C25.3821 32.9291 25.5001 33.134 25.4404 33.356Z" fill="#FFCEA6"/>
<path d="M24.7878 30.7128C24.6792 31.1165 24.2748 31.3324 23.8913 31.2292C23.5078 31.1261 23.2717 30.7162 23.3749 30.3327C23.4781 29.9492 23.8934 29.6929 24.2769 29.7961C24.6604 29.8993 24.8965 30.3091 24.7878 30.7128Z" fill="#FFCEA6"/>
<path d="M27.5746 29.6876C27.5203 29.8895 27.3099 30.0277 27.0879 29.9679C26.8659 29.9082 26.7478 29.7033 26.8076 29.4812C26.8673 29.2592 27.0722 29.1412 27.2943 29.2009C27.5163 29.2606 27.6343 29.4656 27.5746 29.6876Z" fill="#FFCEA6"/>
<path d="M30.4298 29.3735C30.3374 29.7166 29.9788 29.9232 29.6357 29.8309C29.2925 29.7385 29.086 29.3799 29.1783 29.0368C29.2706 28.6936 29.6292 28.4871 29.9724 28.5794C30.3155 28.6717 30.5221 29.0303 30.4298 29.3735Z" fill="#FFCEA6"/>
<path d="M30.0837 25.7521C30.0456 25.8934 29.892 25.9819 29.7507 25.9439C29.6094 25.9059 29.5208 25.7522 29.5589 25.6109C29.5969 25.4696 29.7506 25.3811 29.8919 25.4191C30.0331 25.4571 30.1217 25.6108 30.0837 25.7521Z" fill="#FFCEA6"/>
<path d="M28.9125 23.1858C28.8637 23.3675 28.6587 23.4855 28.4771 23.4366C28.2954 23.3878 28.1774 23.1829 28.2263 23.0012C28.2751 22.8195 28.4801 22.7015 28.6617 22.7504C28.8434 22.7992 28.9614 23.0042 28.9125 23.1858Z" fill="#FFCEA6"/>
<path d="M33.4456 24.6002C33.3696 24.8828 33.0824 25.0653 32.7796 24.9838C32.4769 24.9024 32.3146 24.6206 32.396 24.3178C32.4775 24.0151 32.7592 23.8528 33.062 23.9342C33.3648 24.0157 33.5217 24.3176 33.4456 24.6002Z" fill="#FFCEA6"/>
<path d="M33.5936 27.1076C33.5338 27.3297 33.3087 27.4423 33.1069 27.388C32.905 27.3337 32.7723 27.1031 32.8266 26.9013C32.8809 26.6994 33.1114 26.5667 33.3133 26.621C33.5151 26.6753 33.6479 26.9058 33.5936 27.1076Z" fill="#FFCEA6"/>
<path d="M35.786 23.3034C36.1427 23.3994 36.5097 23.188 36.6057 22.8312C36.7016 22.4745 36.4903 22.1075 36.1335 22.0115C35.7768 21.9156 35.4098 22.127 35.3138 22.4837C35.2179 22.8404 35.4292 23.2074 35.786 23.3034Z" fill="#FFCEA6"/>
<path d="M34.5697 20.4219C34.4503 20.866 33.9892 21.1316 33.5451 21.0121C33.1011 20.8927 32.8355 20.4316 32.9549 19.9875C33.0744 19.5434 33.5355 19.2779 33.9796 19.3973C34.4236 19.5168 34.6892 19.9779 34.5697 20.4219Z" fill="#FFCEA6"/>
<path d="M39.4371 19.8699C39.2959 20.3947 38.758 20.7046 38.2332 20.5634C37.7083 20.4222 37.3985 19.8842 37.5397 19.3594C37.6809 18.8346 38.2188 18.5248 38.7436 18.666C39.2684 18.8072 39.5783 19.3451 39.4371 19.8699Z" fill="#FFCEA6"/>
<path d="M39.5362 23.1218C39.4656 23.3842 39.2095 23.5318 38.9471 23.4612C38.6847 23.3906 38.5371 23.1344 38.6077 22.872C38.6783 22.6096 38.9345 22.4621 39.1969 22.5327C39.4593 22.6033 39.6068 22.8594 39.5362 23.1218Z" fill="#FFCEA6"/>
<path d="M43.3259 25.8514C43.1575 26.4772 42.5172 26.846 41.8914 26.6777C41.2657 26.5093 40.8968 25.8689 41.0652 25.2432C41.2335 24.6175 41.8739 24.2486 42.4996 24.417C43.1254 24.5853 43.4942 25.2257 43.3259 25.8514Z" fill="#FFCEA6"/>
<path d="M41.6524 27.5658C41.5167 28.0704 41.0044 28.3655 40.4998 28.2297C39.9951 28.094 39.7 27.5817 39.8358 27.077C39.9716 26.5724 40.4839 26.2773 40.9885 26.4131C41.4931 26.5489 41.7882 27.0612 41.6524 27.5658Z" fill="#FFCEA6"/>
<path d="M45.1148 27.8912C45.066 28.0729 44.8611 28.1909 44.6794 28.1421C44.4977 28.0932 44.3797 27.8882 44.4286 27.7066C44.4774 27.5249 44.6824 27.4069 44.864 27.4558C45.0457 27.5046 45.1637 27.7096 45.1148 27.8912Z" fill="#FFCEA6"/>
<path d="M44.4712 23.0425C44.4169 23.2444 44.2065 23.3826 43.9845 23.3229C43.7625 23.2631 43.6444 23.0582 43.7042 22.8362C43.7639 22.6142 43.9688 22.4961 44.1909 22.5558C44.4129 22.6156 44.5309 22.8205 44.4712 23.0425Z" fill="#FFCEA6"/>
<path d="M46.8581 21.4119C46.668 22.1183 45.9508 22.5315 45.2241 22.336C44.4975 22.1405 44.1045 21.4287 44.2946 20.7222C44.4847 20.0157 45.2019 19.6026 45.9084 19.7927C46.6148 19.9828 47.0481 20.7054 46.8581 21.4119Z" fill="#FFCEA6"/>
<path d="M48.3616 25.2365C48.2585 25.62 47.8688 25.8615 47.4651 25.7529C47.0614 25.6442 46.8455 25.2398 46.9487 24.8563C47.0519 24.4728 47.4415 24.2313 47.8452 24.3399C48.2489 24.4485 48.4703 24.8328 48.3616 25.2365Z" fill="#FFCEA6"/>
<path d="M49.177 30.9755C49.5338 31.0715 49.9007 30.8601 49.9967 30.5034C50.0927 30.1467 49.8813 29.7797 49.5246 29.6837C49.1678 29.5877 48.8009 29.7991 48.7049 30.1558C48.6089 30.5126 48.8203 30.8796 49.177 30.9755Z" fill="#FFCEA6"/>
<path d="M53.0292 27.3581C52.8771 27.9232 52.288 28.2626 51.7228 28.1105C51.1576 27.9585 50.8183 27.3693 50.9703 26.8041C51.1224 26.239 51.7115 25.8996 52.2767 26.0517C52.8419 26.2037 53.1812 26.7929 53.0292 27.3581Z" fill="#FFCEA6"/>
<path d="M53.1074 30.929C53.0368 31.1914 52.7551 31.3537 52.4927 31.2831C52.2303 31.2125 52.068 30.9308 52.1386 30.6684C52.2092 30.406 52.4909 30.2437 52.7533 30.3143C53.0157 30.3849 53.178 30.6666 53.1074 30.929Z" fill="#FFCEA6"/>
<path d="M53.5923 33.3106C53.4782 33.7345 53.0428 33.9853 52.6189 33.8713C52.195 33.7573 51.9442 33.3218 52.0582 32.8979C52.1723 32.474 52.6077 32.2232 53.0316 32.3372C53.4555 32.4513 53.7063 32.8868 53.5923 33.3106Z" fill="#FFCEA6"/>
<path d="M57.7714 30.4089C57.603 31.0346 56.9627 31.4034 56.3369 31.2351C55.7112 31.0667 55.3423 30.4264 55.5107 29.8006C55.679 29.1749 56.3194 28.806 56.9451 28.9744C57.5709 29.1427 57.9397 29.7831 57.7714 30.4089Z" fill="#FFCEA6"/>
<path d="M59.6293 27.4454C59.5261 27.8289 59.1419 28.0502 58.7584 27.947C58.3749 27.8438 58.1536 27.4596 58.2568 27.0761C58.3599 26.6926 58.7442 26.4713 59.1277 26.5744C59.5112 26.6776 59.7325 27.0619 59.6293 27.4454Z" fill="#FFCEA6"/>
<path d="M56.9479 27.1136C56.8556 27.4567 56.497 27.6633 56.1538 27.571C55.8107 27.4787 55.6041 27.12 55.6964 26.7769C55.7888 26.4338 56.1474 26.2272 56.4905 26.3195C56.8337 26.4118 57.0402 26.7705 56.9479 27.1136Z" fill="#FFCEA6"/>
<path d="M20.2786 36.7727C20.2189 36.9947 19.9829 37.1477 19.7407 37.0825C19.4985 37.0174 19.3657 36.7868 19.4308 36.5446C19.496 36.3024 19.7211 36.1898 19.9633 36.255C20.2055 36.3201 20.3383 36.5507 20.2786 36.7727Z" fill="#FFCEA6"/>
</svg>
