<svg width="35" height="75" viewBox="0 0 35 75" fill="none" xmlns="http://www.w3.org/2000/svg">
<path d="M34.0005 54.6455C34.0005 65.3816 26.6076 74.0842 17.5086 74.0842C8.40963 74.0842 1.01672 65.3816 1.01672 54.6455C1.01672 43.9094 8.40963 35.224 17.5086 35.224C26.6076 35.224 34.0005 43.9266 34.0005 54.6455Z" fill="#D35400"/>
<path d="M29.968 67.3461C28.486 68.4491 27.0039 69.4485 25.5391 70.3447C23.3678 69.776 21.0931 69.0005 18.7494 68.001C20.7139 67.0704 22.713 65.9503 24.712 64.6406C26.7799 65.3471 28.7789 65.8813 30.6918 66.2777C30.8813 65.9675 31.0881 65.6745 31.2605 65.3643C29.5027 65.0197 27.676 64.5544 25.7804 63.934C27.4865 62.7794 29.1753 61.4697 30.8813 60.0049C31.6741 60.2117 32.4495 60.4013 33.225 60.5564C33.3112 60.229 33.3801 59.9015 33.449 59.5741C32.8976 59.4535 32.3461 59.3329 31.7947 59.195C32.484 58.5746 33.1561 57.937 33.8454 57.2649C33.8971 56.7479 33.9488 56.2137 33.966 55.6795C32.8631 56.8168 31.743 57.8853 30.6229 58.8848C28.7789 58.3678 26.8661 57.7302 24.9015 56.903C26.4525 55.7484 28.0034 54.4732 29.5372 53.0601C31.0709 53.6115 32.5529 54.0424 34.0177 54.4215C34.0177 54.0596 33.9833 53.7149 33.966 53.3703C32.7942 53.0601 31.5879 52.7154 30.3644 52.2846C31.3639 51.3196 32.3634 50.2856 33.3457 49.2171C33.2423 48.838 33.1389 48.4589 33.0182 48.0798C31.7775 49.4584 30.5367 50.7336 29.2787 51.9055C27.6071 51.2851 25.8838 50.5268 24.1433 49.648C25.5564 48.4761 26.9867 47.2009 28.3826 45.8223C29.8991 46.5116 31.3983 47.0975 32.8631 47.6145C32.7253 47.1837 32.5702 46.7701 32.3978 46.3737C31.3294 45.9774 30.2437 45.5465 29.1408 45.064C29.7095 44.4781 30.2782 43.875 30.8296 43.2546C30.6401 42.9616 30.4678 42.6514 30.261 42.3585C29.5544 43.1339 28.8651 43.8922 28.1586 44.616C26.6421 43.8922 25.0911 43.065 23.5401 42.1172C24.6947 41.0832 25.8321 39.9459 26.9522 38.7568C26.6937 38.5328 26.418 38.3432 26.1423 38.1364C24.9877 39.3599 23.8159 40.4973 22.6268 41.5485C21.1965 40.6352 19.7489 39.6357 18.3186 38.5155C19.3525 37.6711 20.3865 36.7578 21.4205 35.7927C21.0241 35.6721 20.6278 35.5859 20.2314 35.4998C19.3181 36.327 18.4047 37.1196 17.5086 37.8434C16.5953 37.1024 15.6819 36.327 14.7858 35.4998C14.3895 35.5859 13.9931 35.6721 13.5968 35.7927C14.6307 36.7578 15.6647 37.6539 16.6987 38.5155C15.2511 39.6357 13.8208 40.6352 12.3905 41.5485C11.2186 40.4973 10.0468 39.3427 8.87494 38.1192C8.59922 38.3259 8.32349 38.5155 8.065 38.7395C9.20237 39.9286 10.3397 41.066 11.4771 42.0999C9.92615 43.0478 8.37519 43.875 6.8587 44.5987C6.15215 43.875 5.4456 43.1167 4.75628 42.3412C4.54949 42.6342 4.37716 42.9271 4.1876 43.2373C4.75629 43.8577 5.30774 44.4609 5.87642 45.0468C4.77352 45.5465 3.68785 45.9601 2.61941 46.3565C2.44708 46.7701 2.29198 47.1837 2.15412 47.5972C3.61891 47.0975 5.11817 46.5116 6.63467 45.805C8.04776 47.2009 9.46086 48.4761 10.874 49.6307C9.13344 50.5096 7.41015 51.2506 5.73856 51.8882C4.48056 50.7164 3.23979 49.4239 1.99902 48.0625C1.87839 48.4417 1.77499 48.8208 1.67159 49.1999C2.65387 50.2856 3.65338 51.3196 4.65289 52.2674C3.42935 52.6982 2.22305 53.0428 1.05121 53.353C1.03398 53.6977 1.01674 54.0596 0.999512 54.4042C2.44707 54.0251 3.94634 53.5943 5.48007 53.0428C7.01379 54.4559 8.56475 55.7312 10.1157 56.8858C8.15116 57.6957 6.23831 58.3506 4.39439 58.8676C3.27426 57.8853 2.15412 56.7996 1.05121 55.6623C1.06845 56.1965 1.12015 56.7307 1.17184 57.2477C1.84393 57.9198 2.53324 58.5746 3.22256 59.1777C2.6711 59.3156 2.11965 59.4535 1.5682 59.5569C1.63713 59.8843 1.70606 60.2117 1.79222 60.5392C2.5677 60.3668 3.34318 60.1945 4.1359 59.9877C5.82472 61.4525 7.53078 62.745 9.23684 63.9168C7.34122 64.5372 5.51453 64.9852 3.75678 65.3471C3.92911 65.6573 4.1359 65.9675 4.32546 66.2605C6.23831 65.8641 8.23733 65.3299 10.3053 64.6233C12.3043 65.9158 14.3033 67.0359 16.2679 67.9838C13.9242 68.9833 11.6494 69.7415 9.4781 70.3274C8.0133 69.4313 6.53127 68.449 5.04924 67.3289C6.25555 68.966 7.66864 70.3447 9.2713 71.4303C9.28853 71.4303 9.323 71.4303 9.34023 71.4303C10.3397 72.0163 11.3392 72.5677 12.3215 73.0675C13.7691 73.6361 15.2856 73.9636 16.871 74.0325C14.8548 73.2225 12.7868 72.2575 10.7016 71.0685C12.8902 70.4481 15.1822 69.6209 17.5086 68.5697C19.8523 69.6209 22.127 70.4308 24.3156 71.0685C22.2304 72.2575 20.1625 73.2225 18.1462 74.0325C19.7317 73.9636 21.2654 73.6361 22.7129 73.0675C23.6952 72.5677 24.6947 72.0163 25.6942 71.4303C25.7115 71.4303 25.7459 71.4303 25.7632 71.4303C27.3486 70.3447 28.7789 68.9488 29.9852 67.3289L29.968 67.3461ZM29.6923 59.6947C27.9862 61.1251 26.2802 62.4003 24.5741 63.5377C22.6268 62.8484 20.6278 62.0039 18.6115 60.9872C20.3693 60.0222 22.1615 58.902 23.9365 57.6268C25.901 58.4712 27.8484 59.1433 29.7095 59.6947H29.6923ZM22.8336 57.1443C21.0414 58.385 19.2664 59.4707 17.5086 60.4185C15.7509 59.4707 13.9586 58.385 12.1837 57.1443C13.9414 56.3516 15.7164 55.421 17.5086 54.3353C19.3008 55.421 21.0758 56.3516 22.8336 57.1443ZM12.7179 49.8203C14.3033 48.9587 15.906 47.9764 17.5086 46.8735C19.1113 47.9764 20.7139 48.9587 22.2994 49.8203C20.6967 51.0611 19.094 52.164 17.5086 53.1462C15.9232 52.164 14.3205 51.0611 12.7179 49.8203ZM28.4515 52.6637C26.9005 54.0596 25.3496 55.3176 23.7986 56.4549C22.0581 55.6795 20.2831 54.7834 18.4909 53.7321C20.0763 52.7326 21.679 51.6125 23.2816 50.3373C25.0394 51.2506 26.7627 52.0089 28.4515 52.6637ZM22.7302 42.7893C24.2984 43.7543 25.8666 44.5987 27.4003 45.3397C25.9872 46.7184 24.5741 47.9764 23.161 49.1137C21.5928 48.2693 19.9902 47.3215 18.3875 46.2359C19.8351 45.2019 21.2826 44.0473 22.7302 42.7893ZM17.5086 39.1531C18.9562 40.2905 20.4037 41.3072 21.8513 42.2206C20.4037 43.4614 18.9562 44.5987 17.5086 45.6155C16.0611 44.5987 14.6135 43.4614 13.1659 42.2206C14.6135 41.29 16.0611 40.2905 17.5086 39.1531ZM7.59971 45.3397C9.13344 44.5987 10.7016 43.7543 12.2698 42.7893C13.7174 44.0473 15.1649 45.2019 16.6125 46.2359C15.0099 47.3215 13.4244 48.2693 11.839 49.1137C10.4087 47.9591 8.99558 46.7184 7.59971 45.3397ZM6.56573 52.6637C8.25456 52.0089 9.97785 51.2506 11.7356 50.3373C13.3383 51.5953 14.9409 52.7154 16.5263 53.7321C14.7341 54.7834 12.9591 55.6967 11.2186 56.4549C9.66766 55.3176 8.11669 54.0596 6.56573 52.6637ZM5.32497 59.6947C7.18612 59.1433 9.1162 58.4712 11.098 57.6268C12.873 58.902 14.6652 60.0049 16.4229 60.9872C14.3895 62.0039 12.3905 62.8484 10.4604 63.5377C8.75432 62.4003 7.04826 61.1423 5.3422 59.6947H5.32497ZM11.5288 64.227C13.4761 63.5032 15.4751 62.6416 17.5086 61.5731C19.5421 62.6416 21.5411 63.5032 23.4884 64.227C21.4722 65.5022 19.4732 66.5707 17.5086 67.4668C15.5441 66.5707 13.5451 65.5022 11.5288 64.227Z" fill="#8A3700"/>
<path d="M14.5446 48.9759C15.5096 49.6824 16.5091 50.3717 17.4914 50.9921C18.4737 50.3717 19.4559 49.6997 20.4382 48.9759C19.4387 48.39 18.4564 47.7868 17.4914 47.132C16.5263 47.7868 15.5441 48.39 14.5446 48.9759Z" fill="#F39C12"/>
<path d="M20.1625 45.2363C21.1103 45.8395 22.0753 46.4082 23.0404 46.9424C23.9537 46.1842 24.8153 45.4259 25.6598 44.6504C24.7119 44.1507 23.7641 43.6337 22.8336 43.0822C21.9375 43.8405 21.0414 44.5643 20.1625 45.2363Z" fill="#F39C12"/>
<path d="M14.2171 56.3171C15.3028 57.0236 16.4057 57.6785 17.5086 58.2816C18.6115 57.6785 19.7144 57.0236 20.8001 56.3171C19.6972 55.7656 18.5943 55.1797 17.5086 54.5421C16.4229 55.1797 15.3373 55.7656 14.2171 56.3171Z" fill="#F39C12"/>
<path d="M9.34023 44.6504C10.1846 45.4431 11.0463 46.2014 11.9596 46.9424C12.9247 46.4082 13.8897 45.8395 14.8375 45.2363C13.9414 44.5643 13.0453 43.8405 12.1664 43.0822C11.2358 43.6337 10.288 44.1507 9.34023 44.6504Z" fill="#F39C12"/>
<path d="M11.3392 54.3353C12.4249 53.8356 13.4934 53.3013 14.579 52.7154C13.5623 52.0433 12.58 51.3196 11.615 50.5786C10.581 51.0955 9.52979 51.5781 8.46135 52.0261C9.40916 52.8361 10.3742 53.6115 11.3392 54.3353Z" fill="#F39C12"/>
<path d="M4.65288 56.7996C5.80749 56.4722 6.94485 56.0758 8.08223 55.6623C7.11718 54.8868 6.16937 54.0941 5.2388 53.2669C4.17036 53.6288 3.08469 53.9734 1.98178 54.2836C2.84343 55.1453 3.73954 56.0069 4.65288 56.8169V56.7996Z" fill="#F39C12"/>
<path d="M3.48104 47.2354C4.29099 48.097 5.11816 48.9414 5.96258 49.7514C6.97932 49.355 8.01329 48.907 9.0128 48.4417C8.11669 47.6662 7.23781 46.8735 6.3934 46.0463C5.42836 46.4771 4.44608 46.8735 3.46381 47.2354H3.48104Z" fill="#F39C12"/>
<path d="M26.9005 69.7243C27.1762 69.7932 27.4347 69.8277 27.6932 69.8966C28.3136 69.3279 28.8995 68.6903 29.4337 68.0182C28.5893 68.6214 27.7449 69.1901 26.9005 69.7243Z" fill="#F39C12"/>
<path d="M5.549 68.0182C6.08322 68.6903 6.66914 69.3107 7.28952 69.8966C7.54801 69.8449 7.80651 69.7932 8.08223 69.7243C7.23782 69.1901 6.39341 68.6214 5.549 68.0182Z" fill="#F39C12"/>
<path d="M31.5189 47.2354C30.5367 46.8735 29.5544 46.4771 28.5894 46.0463C27.745 46.8735 26.8661 47.6662 25.97 48.4417C26.9867 48.907 28.0034 49.355 29.0202 49.7514C29.8646 48.9414 30.6918 48.097 31.5017 47.2354H31.5189Z" fill="#F39C12"/>
<path d="M14.2343 59.936C13.1142 59.2639 12.0285 58.5574 10.9601 57.8164C9.78827 58.2989 8.61643 58.7469 7.41013 59.1433C8.4441 59.9532 9.4953 60.7287 10.5637 61.4525C11.7873 61.0044 13.0108 60.5047 14.2171 59.9532L14.2343 59.936Z" fill="#F39C12"/>
<path d="M12.4766 39.291C13.3555 38.7223 14.2171 38.1192 15.0615 37.4988C14.4584 36.9818 13.8552 36.4303 13.2521 35.8789C12.2353 36.2063 11.2531 36.6371 10.3053 37.1713C11.029 37.9124 11.7528 38.6189 12.4766 39.291Z" fill="#F39C12"/>
<path d="M20.421 52.6982C21.4894 53.2841 22.5751 53.8356 23.6608 54.3181C24.6258 53.5943 25.5908 52.8188 26.5387 52.0089C25.4702 51.5608 24.419 51.0783 23.385 50.5613C22.42 51.3023 21.4377 52.0089 20.421 52.6982Z" fill="#F39C12"/>
<path d="M32.2427 50.8715C32.708 51.0094 33.1905 51.1472 33.6903 51.2851C33.6903 51.0611 33.6558 50.8543 33.6386 50.6302C33.5869 50.3028 33.5007 49.9754 33.4318 49.648C33.0354 50.0616 32.6391 50.4752 32.2427 50.8715Z" fill="#F39C12"/>
<path d="M25.2117 40.9453C26.1078 41.4623 27.0212 41.9449 27.9345 42.3929C28.3653 41.9449 28.7962 41.4796 29.227 40.997C28.6066 40.256 27.9173 39.584 27.1935 38.9636C26.5214 39.6529 25.8666 40.325 25.2117 40.9626V40.9453Z" fill="#F39C12"/>
<path d="M21.1965 63.4515C19.9385 62.9345 18.6977 62.3658 17.4914 61.7455C16.2851 62.3486 15.0443 62.9173 13.7863 63.4515C14.9926 64.1408 16.2334 64.7957 17.4914 65.3816C18.7494 64.7957 19.9902 64.1408 21.1965 63.4515Z" fill="#F39C12"/>
<path d="M3.05019 63.5032C4.35989 63.2447 5.66958 62.9517 6.94482 62.5899C5.91084 61.8144 4.87687 61.0044 3.87737 60.16C3.18805 60.3324 2.49873 60.4702 1.80942 60.6253C2.05068 61.5214 2.36087 62.3831 2.70553 63.2102C2.82616 63.3136 2.92956 63.417 3.05019 63.5204V63.5032Z" fill="#F39C12"/>
<path d="M7.06546 42.3929C7.9788 41.9449 8.87492 41.4623 9.78826 40.9453C9.11618 40.3077 8.46133 39.6529 7.78925 38.9636C7.06547 39.584 6.39338 40.256 5.77299 40.997C6.20382 41.4796 6.63464 41.9449 7.06546 42.3929Z" fill="#F39C12"/>
<path d="M4.11868 43.7198C4.11868 43.7198 4.01528 43.5992 3.96358 43.5475C3.91188 43.6509 3.84295 43.7543 3.77402 43.8405C3.89465 43.7888 3.99805 43.7543 4.11868 43.7198Z" fill="#F39C12"/>
<path d="M2.75726 50.8715C2.34367 50.4579 1.96454 50.0443 1.56819 49.6135C1.44756 50.1649 1.34416 50.7164 1.258 51.2851C1.75775 51.1472 2.2575 51.0266 2.75726 50.8715Z" fill="#F39C12"/>
<path d="M21.7134 70.3447C20.3003 69.8621 18.8872 69.3279 17.5086 68.7075C16.1128 69.3107 14.7169 69.8621 13.3038 70.3447C14.6824 71.034 16.0783 71.6716 17.5086 72.2403C18.9389 71.6716 20.352 71.034 21.7134 70.3447Z" fill="#F39C12"/>
<path d="M9.63317 68.2767C11.029 67.8976 12.4421 67.4323 13.8035 66.9153C12.58 66.2605 11.3565 65.5539 10.1674 64.7784C8.84046 65.2093 7.4963 65.6056 6.15213 65.933C7.2895 66.7602 8.44411 67.5357 9.63317 68.2595V68.2767Z" fill="#F39C12"/>
<path d="M33.0182 60.6081C32.3806 60.4702 31.743 60.3151 31.1226 60.16C30.1231 61.0044 29.0891 61.8316 28.0551 62.5899C29.3304 62.9517 30.6401 63.2447 31.9498 63.5032C32.0359 63.4343 32.1738 63.2964 32.3117 63.193C32.4668 62.8139 32.6391 62.4348 32.777 62.0384C32.8631 61.5559 32.9493 61.0906 33.0354 60.6081H33.0182Z" fill="#F39C12"/>
<path d="M31.7775 58.2472C32.4151 58.4023 33.0182 58.5401 33.6386 58.6608C33.7765 57.8508 33.8799 57.0236 33.9316 56.1965C33.225 56.903 32.5012 57.6096 31.7775 58.2472Z" fill="#F39C12"/>
<path d="M20.7656 59.936C21.9719 60.4875 23.1955 60.9872 24.419 61.4353C25.4874 60.7115 26.5559 59.936 27.5726 59.1261C26.3835 58.7297 25.1945 58.2816 24.0399 57.7991C22.9714 58.5401 21.8685 59.2467 20.7656 59.9188V59.936Z" fill="#F39C12"/>
<path d="M33.001 54.2664C31.8808 53.9562 30.8124 53.6288 29.7439 53.2669C28.8306 54.0941 27.8828 54.904 26.9005 55.6623C28.0379 56.0931 29.1925 56.4722 30.3299 56.7996C31.226 56.0069 32.1221 55.1453 32.9837 54.2664H33.001Z" fill="#F39C12"/>
<path d="M28.8478 65.9503C27.5037 65.6229 26.1595 65.2437 24.8326 64.7957C23.6263 65.5539 22.42 66.2777 21.1964 66.9325C22.5751 67.4495 23.9709 67.8976 25.3668 68.294C26.5559 67.5702 27.7105 66.7775 28.8478 65.9675V65.9503Z" fill="#F39C12"/>
<path d="M17.4914 43.4097C18.3875 42.7548 19.2664 42.0827 20.128 41.3589C19.2147 40.7386 18.3358 40.1182 17.4914 39.4633C16.6297 40.1182 15.7681 40.7386 14.8547 41.3589C15.7164 42.0827 16.6125 42.7548 17.4914 43.4097Z" fill="#F39C12"/>
<path d="M19.9384 37.4988C20.7829 38.1192 21.6445 38.7223 22.5234 39.291C23.2472 38.6362 23.9709 37.9124 24.6947 37.1713C23.7642 36.6371 22.7819 36.2063 21.7651 35.8789C21.162 36.4303 20.5588 36.9646 19.9557 37.4988H19.9384Z" fill="#F39C12"/>
<path d="M30.8813 43.7198C31.002 43.7715 31.1054 43.806 31.226 43.8577C31.1743 43.7543 31.1054 43.6509 31.0364 43.5475C30.9847 43.5992 30.933 43.6681 30.8813 43.7198Z" fill="#F39C12"/>
<path d="M20.0763 24.1261C15.613 10.1674 25.2462 5.01478 29.5027 4.60119C25.3323 7.25506 29.5027 16.9399 23.3678 23.6435C22.7302 24.3501 20.0763 24.1261 20.0763 24.1261Z" fill="#186B3B"/>
<path d="M14.9237 24.1261C19.387 10.1674 9.75382 5.01478 5.4973 4.60119C9.66766 7.25506 5.4973 16.9399 11.6322 23.6435C12.2698 24.3501 14.9237 24.1261 14.9237 24.1261Z" fill="#186B3B"/>
<path d="M11.546 26.2974C11.546 30.0714 14.2171 38.326 17.5086 38.326C20.8001 38.326 23.4712 30.0714 23.4712 26.2974C23.4712 13.5968 17.5086 1.52588e-05 17.5086 1.52588e-05C17.5086 1.52588e-05 11.546 12.7006 11.546 26.2974Z" fill="#1F8C4D"/>
<path d="M17.3363 27.0556C20.1452 12.6662 31.0537 12.7868 35 14.4929C30.0714 14.8203 29.0547 25.2979 20.4554 28.2275C19.5593 28.5377 17.3363 27.0729 17.3363 27.0729V27.0556Z" fill="#1DA155"/>
<path d="M17.6637 27.0556C14.8548 12.6662 3.94633 12.7868 0 14.4929C4.92861 14.8203 5.94534 25.2979 14.5446 28.2275C15.4407 28.5377 17.6637 27.0729 17.6637 27.0729V27.0556Z" fill="#1DA155"/>
<path d="M12.0802 30.1403C12.0802 32.708 14.5101 38.326 17.4914 38.326C20.4727 38.326 22.9025 32.708 22.9025 30.1403C22.9025 21.4894 17.4914 12.2354 17.4914 12.2354C17.4914 12.2354 12.0802 20.8863 12.0802 30.1403Z" fill="#186B3B"/>
<path d="M17.9394 33.742C19.5593 24.4018 27.8139 23.5918 32.0187 24.4018C28.6755 25.97 21.2998 37.9296 18.3185 35.9133C17.5258 35.3791 17.9394 33.7592 17.9394 33.7592V33.742Z" fill="#27AE60"/>
<path d="M17.0606 33.742C15.4407 24.4018 7.18612 23.5918 2.98129 24.4018C6.32447 25.97 13.7002 37.9296 16.6814 35.9133C17.4742 35.3791 17.0606 33.7592 17.0606 33.7592V33.742Z" fill="#27AE60"/>
<path d="M12.5972 33.966C12.5972 35.3274 14.7858 38.3432 17.5086 38.3432C20.2314 38.3432 22.42 35.3447 22.42 33.966C22.42 29.3476 17.5086 24.4018 17.5086 24.4018C17.5086 24.4018 12.5972 29.0202 12.5972 33.966Z" fill="#1F8C4D"/>
<g style="mix-blend-mode:multiply" opacity="0.7">
<path d="M17.4914 35.2068C14.6135 35.2068 11.9079 36.0857 9.54701 37.6194C9.73657 37.5849 9.92613 37.5677 10.1329 37.5677C12.287 37.5677 13.321 39.9975 13.097 41.8932C14.2344 40.842 16.0093 40.549 17.4224 41.2039C18.8355 41.8587 19.7661 43.4097 19.6972 44.9434C20.8001 44.1507 22.4027 44.1334 23.5229 44.9089C24.643 45.6672 25.2289 47.1664 24.9015 48.4761C26.2285 48.5278 27.2969 49.6824 27.676 50.9404C28.0551 52.1984 27.9 53.5598 27.7449 54.8695C28.193 56.0414 27.969 57.3511 27.7449 58.5746C27.6243 59.2639 27.4864 59.9705 27.2624 60.6253C26.9178 61.6248 26.3146 62.5554 25.5564 63.2964C25.4702 64.4338 25.0394 65.5367 24.3501 66.45C23.4884 67.5702 22.2649 68.3284 20.9724 68.8971C18.8872 69.8277 16.5953 70.2585 14.3033 70.1896C11.4254 70.0862 8.80599 68.8971 6.01427 68.5697C8.5992 71.999 13.2521 74.0842 17.4914 74.0842C26.6076 74.0842 33.9832 65.3816 33.9832 54.6455C33.9832 43.9094 26.5903 35.224 17.4914 35.224V35.2068Z" fill="#8D734E"/>
</g>
<path d="M18.1635 36.2235C19.0251 32.1049 25.5391 30.7607 28.0379 31.0364C25.2462 32.6563 24.8843 37.9124 18.7494 37.9296C17.8877 37.9296 18.1635 36.2235 18.1635 36.2235Z" fill="#186B3B"/>
<path d="M16.8365 36.2235C15.9749 32.1049 9.46085 30.7607 6.96208 31.0364C9.75381 32.6563 10.1157 37.9124 16.2506 37.9296C17.095 37.9296 16.8365 36.2235 16.8365 36.2235Z" fill="#186B3B"/>
<path d="M12.5972 35.8789C12.5628 37.2403 14.7858 38.326 17.5086 38.326C20.2314 38.326 22.4545 37.2575 22.42 35.8789C22.3683 34.1556 17.5086 31.0364 17.5086 31.0364C17.5086 31.0364 12.6489 34.1556 12.5972 35.8789Z" fill="#27AE60"/>
</svg>
