<svg width="37" height="125" viewBox="0 0 37 125" fill="none" xmlns="http://www.w3.org/2000/svg">
<path d="M25.4729 36.6655V16.6732H11.5271V36.6655C11.5271 44.4618 0 46.3401 0 52.5925V117.407C0 121.112 8.28512 124.122 18.5 124.122C28.7149 124.122 37 121.112 37 117.407V52.5925C37 46.3401 25.4729 44.4618 25.4729 36.6655Z" fill="#117D68"/>
<path d="M18.5 120.958C9.15993 120.958 3.85951 118.385 3.16479 117.252V52.5925C3.16479 51.2031 5.12029 49.7107 7.20443 48.1154C10.5494 45.5424 14.6919 42.3519 14.6919 36.6655V16.6732H22.3081V36.6655C22.3081 42.3519 26.4506 45.5424 29.7955 48.1154C31.8797 49.7107 33.8352 51.2288 33.8352 52.5925V117.252C33.1405 118.359 27.84 120.958 18.5 120.958Z" fill="#0E6957"/>
<path d="M3.16479 53.8018V117.278C3.85951 118.385 9.15993 120.983 18.5 120.983C27.84 120.983 33.1405 118.41 33.8352 117.278V53.8018H3.16479Z" fill="#6E2119"/>
<path d="M25.4729 16.6732C25.4729 18.0626 22.3595 19.2205 18.5 19.2205C14.6405 19.2205 11.5271 18.0883 11.5271 16.6732C11.5271 15.258 14.6405 14.1259 18.5 14.1259C22.3595 14.1259 25.4729 15.258 25.4729 16.6732Z" fill="#1ABC9C"/>
<path d="M23.7489 16.6732C23.7489 17.7281 21.4075 18.5772 18.5 18.5772C15.5925 18.5772 13.251 17.7281 13.251 16.6732C13.251 15.6183 15.5925 14.7692 18.5 14.7692C21.4075 14.7692 23.7489 15.6183 23.7489 16.6732Z" fill="#F1C40F"/>
<path d="M23.7489 1.90405H13.251V16.6732H23.7489V1.90405Z" fill="#F1C40F"/>
<path d="M23.7489 1.90403C23.7489 2.95897 21.4075 3.80807 18.5 3.80807C15.5925 3.80807 13.251 2.95897 13.251 1.90403C13.251 0.849096 15.5925 0 18.5 0C21.4075 0 23.7489 0.849096 23.7489 1.90403Z" fill="#FFDD57"/>
<path d="M33.8352 53.8018C33.8352 56.8895 26.9652 59.3853 18.5 59.3853C10.0348 59.3853 3.16479 56.8895 3.16479 53.8018C3.16479 50.7142 10.0348 48.2184 18.5 48.2184C26.9652 48.2184 33.8352 50.7142 33.8352 53.8018Z" fill="#912C21"/>
<path d="M16.0299 5.84078C16.0299 6.35538 15.6697 6.76706 15.2323 6.76706C14.7949 6.76706 14.4346 6.35538 14.4346 5.84078C14.4346 5.32617 14.7949 4.91449 15.2323 4.91449C15.6697 4.91449 16.0299 5.32617 16.0299 5.84078Z" fill="#F39C12"/>
<path d="M18.5 9.75175C18.5 10.4722 18.0626 11.064 17.4965 11.064C16.9305 11.064 16.4931 10.4722 16.4931 9.75175C16.4931 9.03131 16.9305 8.43951 17.4965 8.43951C18.0626 8.43951 18.5 9.03131 18.5 9.75175Z" fill="#F39C12"/>
<path d="M17.9339 14.306C17.9339 15.3867 17.3164 16.2615 16.5702 16.2615C15.8241 16.2615 15.2065 15.3867 15.2065 14.306C15.2065 13.2253 15.8241 12.3505 16.5702 12.3505C17.3164 12.3505 17.9339 13.2253 17.9339 14.306Z" fill="#F39C12"/>
<path d="M20.0953 12.8394C20.0953 13.3797 19.838 13.7914 19.5035 13.7914C19.169 13.7914 18.9117 13.354 18.9117 12.8394C18.9117 12.3248 19.169 11.8874 19.5035 11.8874C19.838 11.8874 20.0953 12.3248 20.0953 12.8394Z" fill="#F39C12"/>
<path d="M16.0299 10.8067C16.0299 11.3985 15.6697 11.8616 15.2323 11.8616C14.7949 11.8616 14.4346 11.3985 14.4346 10.8067C14.4346 10.2149 14.7949 9.75174 15.2323 9.75174C15.6697 9.75174 16.0299 10.2149 16.0299 10.8067Z" fill="#F39C12"/>
<path d="M35.7907 82.9799C35.7907 96.5654 28.0459 107.552 18.5 107.552C8.95411 107.552 1.20932 96.5397 1.20932 82.9799C1.20932 69.4201 8.95411 58.3818 18.5 58.3818C28.0459 58.3818 35.7907 69.3943 35.7907 82.9799Z" fill="#F1DF98"/>
<path d="M33.6293 82.9798C33.6293 94.8414 26.8623 104.465 18.5 104.465C10.1377 104.465 3.37065 94.8414 3.37065 82.9798C3.37065 71.1182 10.1377 61.4951 18.5 61.4951C26.8623 61.4951 33.6293 71.1182 33.6293 82.9798Z" fill="#C0392B"/>
<path d="M32.1627 82.9798C32.1627 93.7093 26.039 102.406 18.5 102.406C10.9611 102.406 4.83728 93.7093 4.83728 82.9798C4.83728 72.2504 10.9611 63.5536 18.5 63.5536C26.039 63.5536 32.1627 72.2504 32.1627 82.9798Z" fill="#F1DF98"/>
<path d="M11.4499 85.4242C13.1978 85.4242 14.6148 83.846 14.6148 81.8992C14.6148 79.9524 13.1978 78.3742 11.4499 78.3742C9.70206 78.3742 8.28513 79.9524 8.28513 81.8992C8.28513 83.846 9.70206 85.4242 11.4499 85.4242Z" fill="#34495E"/>
<path d="M21.4847 81.8992C21.4847 83.8547 20.0695 85.4242 18.3199 85.4242C16.5702 85.4242 15.1551 83.8547 15.1551 81.8992C15.1551 79.9437 16.5702 78.3742 18.3199 78.3742C20.0695 78.3742 21.4847 79.9437 21.4847 81.8992Z" fill="#34495E"/>
<path d="M18.3199 88.9235C18.3199 90.879 16.9047 92.4486 15.1551 92.4486C13.4054 92.4486 11.9903 90.879 11.9903 88.9235C11.9903 86.968 13.4054 85.3985 15.1551 85.3985C16.9047 85.3985 18.3199 86.968 18.3199 88.9235Z" fill="#34495E"/>
<path d="M21.4847 95.9736C21.4847 97.9034 20.0695 99.4986 18.3199 99.4986C16.5702 99.4986 15.1551 97.9291 15.1551 95.9736C15.1551 94.0181 16.5702 92.4486 18.3199 92.4486C20.0695 92.4486 21.4847 94.0181 21.4847 95.9736Z" fill="#34495E"/>
<path d="M25.1899 88.9235C25.1899 90.879 23.7747 92.4486 22.025 92.4486C20.2754 92.4486 18.8602 90.879 18.8602 88.9235C18.8602 86.968 20.2754 85.3985 22.025 85.3985C23.7747 85.3985 25.1899 86.968 25.1899 88.9235Z" fill="#34495E"/>
<path d="M28.3547 81.8992C28.3547 83.8547 26.9395 85.4242 25.1898 85.4242C23.4402 85.4242 22.025 83.8547 22.025 81.8992C22.025 79.9437 23.4402 78.3742 25.1898 78.3742C26.9395 78.3742 28.3547 79.9437 28.3547 81.8992Z" fill="#34495E"/>
<path d="M18.4228 73.5112C18.0111 72.096 16.9047 70.8867 15.541 70.3206C15.2065 70.192 14.7948 70.0633 14.6405 69.7288C14.4604 69.3429 14.6662 68.8797 15.0264 68.6224C15.3866 68.3909 15.8241 68.3394 16.2357 68.2879C16.493 69.6774 17.7024 70.6808 18.3971 71.9159C19.169 73.2796 19.5035 75.6468 18.5515 77.0105C18.114 76.7274 18.5 75.9813 18.5515 75.5953C18.6544 74.9006 18.6286 74.1544 18.4228 73.4854V73.5112Z" fill="#27AE60"/>
<path d="M21.7677 74.1544C22.8999 73.4854 24.2378 73.717 25.4986 73.717C26.0132 73.717 28.4319 73.5884 28.5348 72.765C28.3289 74.5918 27.5056 77.0619 25.5243 77.5508C24.6238 77.7567 23.6718 77.6795 22.7198 77.5765C21.4075 77.4479 20.121 77.3192 18.8088 77.1906C19.452 76.0842 20.3526 75.1064 21.4075 74.3603C21.5362 74.2831 21.6648 74.2059 21.7677 74.1287V74.1544Z" fill="#27AE60"/>
</svg>
